<?xml version="1.0" encoding="UTF-8" standalone="no"?>
<svg
   version="1.1"
   viewBox="-8.9415e-06 4.2096423e-05 2468.1412 613.31197"
   width="2468.1414"
   height="613.31201"
   id="svg111"
   sodipodi:docname="vis2022_logo_virtual.svg"
   inkscape:version="1.2 (56b05e47e7, 2022-06-09, custom)"
   xmlns:inkscape="http://www.inkscape.org/namespaces/inkscape"
   xmlns:sodipodi="http://sodipodi.sourceforge.net/DTD/sodipodi-0.dtd"
   xmlns="http://www.w3.org/2000/svg"
   xmlns:svg="http://www.w3.org/2000/svg">
  <defs
     id="defs115" />
  <sodipodi:namedview
     id="namedview113"
     pagecolor="#505050"
     bordercolor="#eeeeee"
     borderopacity="1"
     inkscape:showpageshadow="0"
     inkscape:pageopacity="0"
     inkscape:pagecheckerboard="0"
     inkscape:deskcolor="#505050"
     showgrid="false"
     inkscape:zoom="0.53076377"
     inkscape:cx="1428.1306"
     inkscape:cy="449.35245"
     inkscape:window-width="2488"
     inkscape:window-height="1376"
     inkscape:window-x="1992"
     inkscape:window-y="27"
     inkscape:window-maximized="1"
     inkscape:current-layer="svg111" />
  <g
     id="Canvas_1"
     stroke="none"
     fill-opacity="1"
     stroke-dasharray="none"
     fill="none"
     stroke-opacity="1">
    <title
       id="title18">Canvas 1</title>
    <g
       id="Canvas_1_Layer_1">
      <title
         id="title20">Layer 1</title>
      <g
         id="Group_2">
        <title
           id="title22">Group</title>
        <g
           id="Graphic_86">
          <path
             d="M 748.2108,451.70306 621.3899,158.59032 c -1.4792,-2.9625 -1.97504,-4.9375 -1.97504,-8.39167 0,-9.37501 8.39164,-18.25835 18.75418,-18.25835 9.37501,0 15.79166,5.92501 19.24166,14.31252 L 771.4025,419.13637 885.8859,145.26531 c 3.4542,-6.4125 9.8708,-13.32501 18.2584,-13.32501 10.3625,0 18.2583,8.38751 18.2583,17.76668 0,2.95834 -0.4917,4.93334 -1.4792,7.40001 L 793.6108,451.70306 c -4.4416,9.37917 -10.8583,15.30001 -21.7125,15.30001 h -1.975 c -10.8583,0 -17.7667,-5.92084 -21.7125,-15.30001"
             fill="#1c3160"
             id="path24" />
        </g>
        <g
           id="Graphic_83">
          <path
             d="m 987.5402,150.69282 c 0,-10.36251 8.3916,-18.75002 18.2583,-18.75002 10.3625,0 18.75,8.38751 18.75,18.75002 V 447.2639 c 0,10.3625 -8.3875,18.75 -18.75,18.75 -9.8667,0 -18.2583,-8.3875 -18.2583,-18.75 z"
             fill="#1c3160"
             id="path27" />
        </g>
        <g
           id="Graphic_80">
          <path
             d="m 1101.0361,424.07054 c -4.4417,-2.96251 -6.9084,-7.89584 -6.9084,-14.31251 0,-10.36253 7.8959,-18.25419 17.7626,-18.25419 4.9375,0 8.8833,1.97086 11.3541,4.44166 31.0876,26.15004 62.1709,38.9792 104.1168,38.9792 44.4125,0 73.525,-23.68334 73.525,-56.2542 v -0.9875 c 0,-30.5917 -16.2833,-47.86254 -85.3667,-62.6667 -75.5001,-16.28336 -110.5376,-40.95838 -110.5376,-95.2376 v -0.9875 c 0,-51.81253 45.4001,-89.8084 108.0709,-89.8084 43.4209,0 75.0042,10.85418 105.1085,32.5667 3.9458,2.9625 7.8917,7.89583 7.8917,14.80417 0,9.86668 -7.8917,17.76668 -17.7626,17.76668 -4.4417,0 -7.4042,-0.9875 -10.8584,-3.45833 -27.6333,-20.22919 -54.7708,-28.62086 -85.3667,-28.62086 -42.9333,0 -70.0709,23.68752 -70.0709,53.29588 v 0.9875 c 0,31.08752 16.7751,48.35836 89.3168,64.15006 73.525,15.79167 107.0792,42.9292 107.0792,93.26256 v 0.9875 c 0,56.25424 -46.8792,93.26258 -112.5084,93.26258 -48.3584,0 -88.3292,-14.80418 -124.8459,-43.9167"
             fill="#1c3160"
             id="path30" />
        </g>
        <g
           id="Graphic_77">
          <path
             d="m 1434.6155,428.0176 103.6251,-98.69172 c 46.8792,-44.9042 63.1625,-70.07088 63.1625,-103.13342 0,-38.48753 -28.125,-62.67088 -61.1875,-62.67088 -32.075,0 -53.7834,16.77918 -75.4959,47.8667 -2.4708,3.95001 -6.9125,6.41668 -12.3375,6.41668 -8.8833,0 -15.7917,-7.40418 -15.7917,-16.77918 0,-3.94584 1.4792,-7.40001 3.4542,-10.36251 25.1667,-37.99587 52.8,-60.20422 102.6417,-60.20422 54.7709,0 93.7543,39.4792 93.7543,92.77508 v 0.98333 c 0,47.86671 -23.1917,77.47506 -76.4876,127.31677 l -80.9251,77.96257 h 147.0502 c 8.8833,0 15.7916,7.40416 15.7916,16.77917 0,9.37918 -7.4041,16.77918 -15.7916,16.77918 h -182.5793 c -9.8709,0 -17.2751,-6.90835 -17.2751,-17.27085 0.4959,-7.89583 2.9625,-12.82917 8.3917,-17.7667"
             fill="#a20a35"
             id="path33" />
        </g>
        <g
           id="Graphic_74">
          <path
             d="m 1914.2576,299.22502 v -0.9875 c 0,-71.55006 -36.5167,-135.70011 -92.7709,-135.70011 -56.7501,0 -92.2751,62.66672 -92.2751,135.20844 v 0.9875 c 0,71.55005 36.5167,135.70011 93.2626,135.70011 56.75,0 91.7834,-63.16256 91.7834,-135.20844 m -220.5752,0 v -0.9875 c 0,-91.78341 50.825,-169.75014 128.7918,-169.75014 77.9708,0 127.3126,76.97923 127.3126,168.76264 v 0.9875 c 0,91.78341 -50.3334,169.75014 -128.3001,169.75014 -78.4627,0 -127.8043,-76.97923 -127.8043,-168.76264"
             fill="#a20a35"
             id="path36" />
        </g>
        <g
           id="Graphic_71">
          <path
             d="m 1999.6243,428.0176 103.6292,-98.69172 c 46.8793,-44.9042 63.1625,-70.07088 63.1625,-103.13342 0,-38.48753 -28.129,-62.67088 -61.1874,-62.67088 -32.0792,0 -53.7876,16.77918 -75.5001,47.8667 -2.4667,3.95001 -6.9125,6.41668 -12.3375,6.41668 -8.8834,0 -15.7917,-7.40418 -15.7917,-16.77918 0,-3.94584 1.4792,-7.40001 3.4542,-10.36251 25.1667,-37.99587 52.8042,-60.20422 102.6417,-60.20422 54.7708,0 93.7543,39.4792 93.7543,92.77508 v 0.98333 c 0,47.86671 -23.1917,77.47506 -76.4835,127.31677 l -80.9292,77.96257 h 147.0502 c 8.8833,0 15.7916,7.40416 15.7916,16.77917 0,9.37918 -7.4,16.77918 -15.7916,16.77918 h -182.5794 c -9.8666,0 -17.2708,-6.90835 -17.2708,-17.27085 0,-7.89583 2.4667,-12.82917 8.3875,-17.7667"
             fill="#a20a35"
             id="path39" />
        </g>
        <g
           id="Graphic_68">
          <path
             d="m 109.4782,278.0071 h -0.79166 c -4.93751,0 -18.75002,-0.9875 -23.19169,-10.36252 -1.975,-5.92501 -5.42917,-11.35001 -10.36667,-15.79168 -17.27085,-17.27085 -44.904206,-17.27085 -62.175054,0 -17.2708467,17.27085 -17.2708467,44.9042 0,62.17505 17.270848,17.27501 44.904204,17.27501 62.175054,0 4.44583,-4.4375 7.89584,-9.86668 9.87084,-15.29585 4.9375,-9.87084 19.24585,-10.85417 24.17918,-10.85417 h 0.3 c -0.49166,-3.275 -0.49166,-6.59583 0,-9.87083"
             fill="#a20a35"
             id="path42" />
        </g>
        <g
           id="Graphic_65">
          <path
             d="m 298.1746,480.3264 c -9.375,-5.42916 -10.3625,-18.75 -10.3625,-23.6875 v -0.87917 c -3.4375,0.51667 -6.92918,0.49583 -10.3625,-0.0667 v 1.44167 c 0,5.425 -1.47918,20.22917 -11.8417,24.17917 -0.9875,0.4917 -1.975,0.9875 -2.47082,1.4792 -3.94584,1.975 -7.89168,4.9333 -11.34585,8.3875 -17.27083,17.275 -17.27083,44.90836 0,62.17504 17.27085,17.27501 44.90421,17.27501 62.17507,0 17.27083,-17.26668 17.27083,-44.90004 0,-62.17504 -4.4417,-5.425 -9.87086,-8.8792 -15.7917,-10.8542"
             fill="#a20a35"
             id="path45" />
        </g>
        <g
           id="Graphic_62">
          <path
             d="m 552.8023,251.85373 c -17.27084,-17.27501 -44.9042,-17.27501 -62.17504,0 -4.44166,4.43751 -7.89586,9.86667 -9.87086,15.29585 -5.42915,9.87084 -19.24583,10.85834 -24.17917,10.85834 h -0.225 c 0.47083,3.26668 0.45833,6.58751 -0.0375,9.87084 h 0.75417 c 4.93334,0 18.7542,0.98334 23.1917,10.35834 1.975,5.925 5.42915,11.35 10.36666,15.7917 17.27084,17.27083 44.9042,17.27083 62.17504,0 16.775,-17.27086 16.775,-44.90422 0,-62.17507"
             fill="#a20a35"
             id="path48" />
        </g>
        <g
           id="Graphic_59">
          <path
             d="m 252.28207,13.018959 c -17.27085,17.270847 -17.27085,44.904201 0,62.175051 4.9375,4.93334 10.36251,7.89584 15.79168,10.36251 9.375,5.42917 10.36251,18.75001 10.36251,23.68752 v 0.7375 c 3.4375,-0.5125 6.92917,-0.49167 10.3625,0.075 v -1.30834 c 0,-5.42917 1.47917,-20.22918 11.84168,-24.17918 0.9875,-0.49167 1.975,-0.98334 2.47084,-1.47917 3.94582,-1.975 7.89167,-4.93334 11.34582,-8.38751 17.27086,-17.270846 17.27086,-44.908368 0,-62.179215 -17.27083,-16.7791803 -45.39585,-16.7791803 -62.17503,0.495834"
             fill="#a20a35"
             id="path51" />
        </g>
        <g
           id="Graphic_56">
          <path
             d="m 189.61175,189.6757 c -17.2711,17.2711 -44.90133,17.2711 -62.17243,0 -17.27111,-17.2711 -17.27111,-44.90132 0,-62.17242 17.2711,-17.27111 44.90133,-17.27111 62.17243,0 17.27405,16.77318 17.2711,44.90132 0,62.17242"
             fill="#2672b9"
             id="path54" />
        </g>
        <g
           id="Graphic_53">
          <path
             d="m 376.63493,376.20264 c 17.2711,-17.2711 44.90427,-17.27404 62.17537,0.003 17.2711,17.2711 17.2711,44.9013 0,62.1724 -17.2711,17.2711 -44.90427,17.27407 -62.17537,0.003 -17.2711,-17.277 -17.2711,-44.90723 0,-62.17833"
             fill="#2672b9"
             id="path57" />
        </g>
        <g
           id="Graphic_50">
          <path
             d="m 376.63493,127.00952 c 17.2711,-17.2711 44.90133,-17.2711 62.17243,0 17.27111,17.27111 17.27111,44.90134 0,62.17244 -17.2711,17.2711 -44.90133,17.2711 -62.17243,0 -17.2711,-16.77613 -17.2711,-44.90133 0,-62.17244"
             fill="#2672b9"
             id="path60" />
        </g>
        <g
           id="Graphic_47">
          <path
             d="m 127.4364,376.20264 c 17.2711,-17.2711 44.90428,-17.27404 62.17538,0.003 17.2711,17.2711 17.2711,44.9013 0,62.1724 -17.2711,17.2711 -44.90428,17.27407 -62.17538,0.003 -17.2711,-17.277 -17.2711,-44.90723 0,-62.17833"
             fill="#2672b9"
             id="path63" />
        </g>
        <g
           id="Graphic_44">
          <path
             d="m 166.49187,306.64405 c -13.1675,13.16635 -34.23342,13.16543 -47.39388,-0.002 -13.17225,-13.16751 -13.17132,-34.23342 -8.7e-4,-47.39683 13.16456,-13.1693 34.23048,-13.16838 47.39683,-8.7e-4 13.16637,12.78449 13.16543,34.23343 -0.002,47.39978"
             fill="#1c3160"
             id="path66" />
        </g>
        <g
           id="Graphic_41">
          <path
             d="m 307.3388,167.1418 c -13.2347,13.2347 -34.40373,13.23175 -47.63842,-0.003 -13.23175,-13.23176 -13.22881,-34.40079 0,-47.63548 13.23469,-13.22881 34.40372,-13.23175 47.63548,0 13.23469,12.85168 13.23764,34.40372 0.003,47.63842"
             fill="#1c3160"
             id="path69" />
        </g>
        <g
           id="Graphic_38">
          <path
             d="m 446.9589,306.7619 c -13.2347,13.2347 -34.4037,13.23176 -47.6384,-0.003 -13.23176,-13.23175 -13.2288,-34.40077 0,-47.63547 13.2347,-13.22882 34.4037,-13.23176 47.63547,0 13.23469,12.85167 13.23763,34.40372 0.003,47.6384"
             fill="#1c3160"
             id="path72" />
        </g>
        <g
           id="Graphic_35">
          <path
             d="m 306.84464,446.2441 c -13.2347,13.2347 -34.40374,13.23176 -47.63844,-0.003 -13.23174,-13.23176 -13.2288,-34.40076 0,-47.63546 13.2347,-13.2288 34.40374,-13.23177 47.6355,0 13.2347,12.85166 13.23763,34.4037 0.003,47.6384"
             fill="#1c3160"
             id="path75" />
        </g>
        <g
           id="Graphic_32">
          <path
             d="m 252.28207,244.45206 c -3.06667,-3.06666 -9.20834,-11.19168 -9.52084,-19.53336 -2.39167,7.90835 -8.93333,13.99586 -17.16253,15.57502 9.57085,-0.0333 17.9917,6.15001 20.76253,9.38751 0,0 0.92083,0.91667 2.69584,2.69584 0.875,-1.05834 1.78333,-2.09167 2.76666,-3.08334 0.90834,-0.91667 1.86251,-1.75417 2.82917,-2.57917 -1.55,-1.29166 -2.37083,-2.4625 -2.37083,-2.4625"
             fill="#a20a35"
             id="path78" />
        </g>
        <g
           id="Graphic_29">
          <path
             d="m 323.83796,222.22704 c 0.73334,10.17084 -5.97916,19.30836 -9.37916,22.22502 0,0 -0.9375,0.9375 -2.3417,2.34167 1.0125,0.85833 2.00835,1.74167 2.9625,2.7 1.0417,1.05 2.00835,2.1375 2.92502,3.25417 0.84583,-0.84583 1.53334,-1.53333 1.88334,-1.88333 3.45416,-3.45417 13.32501,-10.85417 22.70001,-9.37501 h 2.59167 c -10.91251,-0.46666 -19.80001,-8.66251 -21.34168,-19.26252"
             fill="#a20a35"
             id="path81" />
        </g>
        <g
           id="Graphic_26">
          <path
             d="m 323.46962,338.9263 c 2.33751,-8.20417 9.18335,-14.49168 17.69585,-16.01668 -9.98751,0.47918 -18.90001,-6.51667 -21.77085,-9.86667 0,0 -0.87917,-0.88335 -2.20417,-2.2 -0.68333,0.7875 -1.35835,1.59165 -2.10835,2.34165 -1.02915,1.0375 -2.10415,2.0042 -3.20415,2.92085 1.25415,1.9875 2.0875,2.85835 2.0875,2.85835 3.12085,3.11666 9.39167,11.46666 9.50417,19.9625"
             fill="#a20a35"
             id="path84" />
        </g>
        <g
           id="Graphic_23">
          <path
             d="m 251.82248,313.1846 c -1.125,-1.1 -2.17083,-2.25 -3.15417,-3.4375 -1.50833,1.50835 -2.30833,2.30835 -2.30833,2.30835 -3.27918,3.27915 -12.33334,10.02085 -21.26668,9.44167 9.18334,2.12084 16.21668,9.82918 17.32084,19.36668 -0.825,-10.2375 5.95416,-19.4625 9.37501,-22.39168 0,0 0.94167,-0.94582 2.77917,-2.77917 -0.93332,-0.80415 -1.8625,-1.61665 -2.74584,-2.50835"
             fill="#a20a35"
             id="path87" />
        </g>
        <g
           id="Graphic_20">
          <path
             d="m 243.62123,218.53246 c 0,12.40834 -10.06251,22.47084 -22.47085,22.47084 -12.41251,0 -22.47085,-10.0625 -22.47085,-22.47084 0,-12.41251 10.05834,-22.47086 22.47085,-22.47086 12.40834,0 22.47085,10.05835 22.47085,22.47086"
             fill="#f15722"
             id="path90" />
        </g>
        <g
           id="Graphic_17">
          <path
             d="m 368.54424,219.03704 c 0,12.47084 -10.10834,22.58336 -22.58334,22.58336 -12.475,0 -22.58336,-10.11252 -22.58336,-22.58336 0,-12.47501 10.11251,-22.58334 22.58336,-22.58334 12.475,0 22.58334,10.1125 22.58334,22.58334"
             fill="#f15722"
             id="path93" />
        </g>
        <g
           id="Graphic_14">
          <path
             d="m 367.5555,345.2009 c 0,12.47083 -10.10835,22.58334 -22.58336,22.58334 -12.47084,0 -22.58334,-10.11251 -22.58334,-22.58334 0,-12.47085 10.1125,-22.58336 22.58334,-22.58336 12.47501,0 22.58336,10.11251 22.58336,22.58336"
             fill="#f15722"
             id="path96" />
        </g>
        <g
           id="Graphic_11">
          <path
             d="m 242.6754,343.5609 c 0,12.47083 -10.11251,22.58334 -22.58336,22.58334 -12.47501,0 -22.58334,-10.11251 -22.58334,-22.58334 0,-12.47085 10.10833,-22.58336 22.58334,-22.58336 12.47085,0 22.58336,10.11251 22.58336,22.58336"
             fill="#f15722"
             id="path99" />
        </g>
        <g
           id="Graphic_8">
          <path
             d="m 251.58516,249.1707 c 17.65624,-17.77635 45.91418,-17.77668 63.56932,-6e-5 17.66396,17.7796 17.66362,46.23199 0.002,64.00831 -17.65331,17.77931 -45.91125,17.77965 -63.57228,0.003 -17.6598,-17.27282 -17.65773,-46.23197 10e-4,-64.01125"
             fill="#fdbb30"
             id="path102" />
        </g>
        <g
           id="Graphic_5">
          <path
             d="m 2260.8912,428.0176 103.6251,-98.69172 c 46.8792,-44.9042 63.1625,-70.07088 63.1625,-103.13342 0,-38.48753 -28.1292,-62.67088 -61.1875,-62.67088 -32.0751,0 -53.7876,16.77918 -75.5001,47.8667 -2.4667,3.95001 -6.9125,6.41668 -12.3375,6.41668 -8.8834,0 -15.7875,-7.40418 -15.7875,-16.77918 0,-3.94584 1.475,-7.40001 3.4541,-10.36251 25.1627,-37.99587 52.8001,-60.20422 102.6377,-60.20422 54.775,0 93.7583,39.4792 93.7583,92.77508 v 0.98333 c 0,47.86671 -23.1958,77.47506 -76.4875,127.31677 l -80.9293,77.96257 h 147.0502 c 8.8833,0 15.7916,7.40416 15.7916,16.77917 0,9.37918 -7.4,16.77918 -15.7916,16.77918 h -182.5794 c -9.8666,0 -17.2708,-6.90835 -17.2708,-17.27085 0,-7.89583 2.4667,-12.82917 8.3917,-17.7667"
             fill="#a20a35"
             id="path105" />
        </g>
      </g>
    </g>
  </g>
  <text
     xml:space="preserve"
     style="font-size:96px;fill:#1c3160;fill-opacity:1"
     x="1740.83"
     y="566.47455"
     id="text335"><tspan
       sodipodi:role="line"
       id="tspan333"
       x="1740.83"
       y="566.47455" /></text>
  <text
     xml:space="preserve"
     style="font-size:133.33333333px;fill:#1c3160;fill-opacity:1"
     x="1620.979"
     y="563.86682"
     id="text1602"><tspan
       sodipodi:role="line"
       id="tspan1600"
       x="1620.979"
       y="563.86682" /></text>
  <text
     xml:space="preserve"
     style="font-size:133.333px;fill:#1c3160;fill-opacity:1"
     x="1619.7168"
     y="600.5863"
     id="text1606"><tspan
       sodipodi:role="line"
       id="tspan1604"></tspan></text>
  <text
     xml:space="preserve"
     style="font-size:133.333px;fill:#1c3160;fill-opacity:1"
     x="1616.9587"
     y="598.88196"
     id="text1660"><tspan
       sodipodi:role="line"
       id="tspan1658"
       x="1616.9587"
       y="598.88196"> </tspan></text>
  <text
     xml:space="preserve"
     style="font-size:133.333px;fill:#1c3160;fill-opacity:1;letter-spacing:0.74px"
     x="1706.8774"
     y="593.25757"
     id="text1664"><tspan
       sodipodi:role="line"
       id="tspan1662"
       x="1706.8774"
       y="593.25757" /></text>
  <text
     xml:space="preserve"
     style="font-size:176.062px;letter-spacing:15.4897px;fill:#1c3160;fill-opacity:1;stroke-width:1.14823"
     x="1650.2538"
     y="610.80054"
     id="text1668"
     transform="scale(1.0107564,0.98935803)"><tspan
       id="tspan1666"
       x="1650.2538"
       y="610.80054"
       style="font-style:normal;font-variant:normal;font-weight:normal;font-stretch:normal;font-size:176.062px;font-family:Ubuntu;-inkscape-font-specification:Ubuntu;stroke-width:1.14823"
       sodipodi:role="line">VIRTUAL</tspan></text>
</svg>
