<svg id="svg2" xmlns="http://www.w3.org/2000/svg" viewBox="0 0 859.71 237.69"><defs><style>.cls-1{fill:#6f2184;}.cls-2{fill:#26853c;}.cls-3{fill:#fbc31b;}</style></defs><path id="path20" class="cls-1" d="M70.22,86a16.28,16.28,0,1,1,0-23,16.21,16.21,0,0,1,0,23"/><path id="path22" class="cls-1" d="M139.48,155.07a16.28,16.28,0,1,1,0,23,16.2,16.2,0,0,1,0-23"/><path id="path24" class="cls-1" d="M139.48,62.79a16.28,16.28,0,1,1,0,23,16.2,16.2,0,0,1,0-23"/><path id="path26" class="cls-1" d="M47.19,155.07a16.28,16.28,0,1,1,0,23,16.21,16.21,0,0,1,0-23"/><path id="path28" class="cls-1" d="M127.78,135.33h-1.09c-3.84.37-7.31-2.37-8.41-3.65l-.91-.92a16.31,16.31,0,0,0,0-21l1.09-1.1c1.28-1.28,4.94-4,8.41-3.47h1.28A8.23,8.23,0,1,0,119.92,97v.91h0c.37,3.84-2.19,7.31-3.47,8.41l-.91.91a16.32,16.32,0,0,0-21,.18,4.81,4.81,0,0,1-1.09-1.09c-1.28-1.28-4-4.94-3.48-8.41V96.59a8.13,8.13,0,1,0-8,8.23h.92c3.83-.37,7.31,2.19,8.4,3.47l1.1,1.09a16.53,16.53,0,0,0,0,20.84l-1.1,1.09c-1.28,1.28-4.93,4-8.4,3.47H81.55A8.2,8.2,0,0,0,73.32,143a8,8,0,0,0,8.23,8,8.15,8.15,0,0,0,8.22-8v-.92h0c-.36-3.83,2.19-7.31,3.47-8.4l1.1-1.1a16.3,16.3,0,0,0,21,0,7.07,7.07,0,0,0,.91,1.28c1.28,1.28,4,4.93,3.47,8.41v1.28a8,8,0,0,0,8.23,8,8.16,8.16,0,0,0,8.22-8,8.47,8.47,0,0,0-8.41-8.23"/><path id="path30" class="cls-1" d="M44.09,111.76a12,12,0,0,0-3.48,6.94h-.36c-1.83,0-7-.36-8.59-3.83A13.53,13.53,0,0,0,27.82,109a16.28,16.28,0,1,0,0,23,15.73,15.73,0,0,0,3.66-5.66c1.82-3.66,7.12-4,9-4h.18a12.16,12.16,0,0,0,3.48,6.76,12.28,12.28,0,1,0,0-17.36Zm66.33,81.87c-3.47-2-3.84-6.95-3.84-8.77v-.37a11,11,0,0,0,6.77-3.47A12.28,12.28,0,1,0,96,181a12.66,12.66,0,0,0,6.77,3.47V185c0,2-.55,7.49-4.39,9a4.16,4.16,0,0,0-.91.55,16.54,16.54,0,0,0-4.21,3.11,16.28,16.28,0,1,0,23,0A12.59,12.59,0,0,0,110.42,193.63Zm-17-173.06a16.21,16.21,0,0,0,0,23,18.93,18.93,0,0,0,5.84,3.83c3.48,2,3.84,7,3.84,8.78v.36A11.07,11.07,0,0,0,96.35,60a12.28,12.28,0,1,0,17.36,0A12.77,12.77,0,0,0,107,56.57V56c0-2,.55-7.49,4.39-9a4,4,0,0,0,.91-.55,16.67,16.67,0,0,0,4.2-3.11,16.2,16.2,0,0,0,0-23,16.36,16.36,0,0,0-23,.18ZM204.72,109a16.21,16.21,0,0,0-23,0,15.84,15.84,0,0,0-3.65,5.66c-2,3.66-7.13,4-9,4h-.18a12.14,12.14,0,0,0-3.47-6.76,12.28,12.28,0,1,0,0,17.36,12,12,0,0,0,3.47-6.94h.36c1.83,0,7,.36,8.59,3.84a13.56,13.56,0,0,0,3.84,5.84,16.21,16.21,0,0,0,23,0,16.55,16.55,0,0,0,0-23"/><path id="path14" class="cls-2" d="M282.09,169.58,241.5,75.79a5.24,5.24,0,0,1-.63-2.69,6.07,6.07,0,0,1,6-5.84c3,0,5.06,1.89,6.16,4.58l36.48,87.32,36.63-87.64c1.11-2,3.16-4.26,5.84-4.26a5.8,5.8,0,0,1,5.85,5.68,5.7,5.7,0,0,1-.48,2.37l-40.74,94.27c-1.42,3-3.47,4.9-6.94,4.9H289c-3.47,0-5.68-1.9-6.94-4.9"/><path id="path16" class="cls-2" d="M358.67,73.26a5.92,5.92,0,1,1,11.84,0v94.9a5.92,5.92,0,1,1-11.84,0V73.26"/><path id="path18" class="cls-2" d="M395,160.74a5.22,5.22,0,0,1-2.21-4.58,5.69,5.69,0,0,1,5.68-5.84,5.13,5.13,0,0,1,3.64,1.42c9.94,8.37,19.89,12.47,33.31,12.47,14.22,0,23.53-7.58,23.53-18v-.31c0-9.79-5.21-15.32-27.32-20.06-24.16-5.21-35.37-13.1-35.37-30.47v-.32c0-16.58,14.53-28.74,34.58-28.74,13.9,0,24,3.48,33.64,10.42A5.94,5.94,0,0,1,467,81.47a5.67,5.67,0,0,1-5.69,5.69,5.36,5.36,0,0,1-3.47-1.11c-8.85-6.47-17.53-9.16-27.32-9.16-13.74,0-22.42,7.58-22.42,17.06v.31c0,9.95,5.37,15.48,28.58,20.53,23.53,5,34.26,13.74,34.26,29.84V145c0,18-15,29.84-36,29.84a61.38,61.38,0,0,1-39.95-14"/><path id="path32" class="cls-3" d="M501.74,162l33.16-31.58c15-14.37,20.21-22.42,20.21-33,0-12.32-9-20-19.58-20-10.27,0-17.21,5.36-24.16,15.31a4.51,4.51,0,0,1-3.95,2,5.15,5.15,0,0,1-5.05-5.36,6,6,0,0,1,1.1-3.32c8.06-12.16,16.9-19.26,32.85-19.26,17.52,0,30,12.63,30,29.68v.32c0,15.32-7.42,24.79-24.48,40.74L516,162.48h47a5.17,5.17,0,0,1,5.06,5.37,5.27,5.27,0,0,1-5.06,5.37H504.58a5.31,5.31,0,0,1-5.53-5.53,7.54,7.54,0,0,1,2.69-5.69"/><path id="path34" class="cls-3" d="M655.22,120.79v-.32c0-22.89-11.68-43.42-29.68-43.42-18.16,0-29.53,20-29.53,43.27v.31c0,22.9,11.68,43.43,29.84,43.43s29.37-20.22,29.37-43.27Zm-70.58,0v-.32c0-29.37,16.26-54.32,41.21-54.32s40.74,24.64,40.74,54v.31c0,29.37-16.11,54.32-41.05,54.32-25.11,0-40.9-24.63-40.9-54"/><path id="path36" class="cls-3" d="M682.54,162l33.16-31.58c15-14.37,20.21-22.42,20.21-33,0-12.32-9-20-19.58-20-10.26,0-17.21,5.36-24.16,15.31a4.51,4.51,0,0,1-3.95,2,5.15,5.15,0,0,1-5.05-5.36,5.9,5.9,0,0,1,1.11-3.32c8.05-12.16,16.89-19.26,32.84-19.26,17.53,0,30,12.63,30,29.68v.32c0,15.32-7.42,24.79-24.47,40.74l-25.9,24.95h47.06a5.16,5.16,0,0,1,5.05,5.37,5.27,5.27,0,0,1-5.05,5.37H685.38a5.3,5.3,0,0,1-5.52-5.53,6.61,6.61,0,0,1,2.68-5.69"/><path id="path38" class="cls-3" d="M786.79,79.33l-13.87,4.75a5.68,5.68,0,0,1-2.31.38,5.07,5.07,0,0,1-4.8-5.13c0-2.47,1.6-4.18,3.91-5.13l16.18-6.08a20.34,20.34,0,0,1,6-1.33h.36a5.62,5.62,0,0,1,5.51,5.89v95.4c0,3.23-2.31,6.08-5.51,6.08a5.79,5.79,0,0,1-5.51-6.08V79.33"/><path class="cls-1" d="M594,225.12l-12.82-31.87a1.63,1.63,0,0,1-.22-.9,2.46,2.46,0,0,1,4.76-.89l12.09,30.91,12.1-30.91a2.37,2.37,0,0,1,2.29-1.57,2.49,2.49,0,0,1,2.47,2.46,2.22,2.22,0,0,1-.23.9l-12.82,31.87a4.1,4.1,0,0,1-3.81,2.57A4,4,0,0,1,594,225.12Z"/><path class="cls-1" d="M622.78,225.39v-33.2a2.32,2.32,0,0,1,2.35-2.3,2.35,2.35,0,0,1,2.3,2.3v33.2a2.35,2.35,0,0,1-2.3,2.3A2.32,2.32,0,0,1,622.78,225.39Z"/><path class="cls-1" d="M665.17,225.56a2.26,2.26,0,0,1-2.24,2.13,2.41,2.41,0,0,1-2-.95l-9.74-14.11H643v12.76a2.34,2.34,0,0,1-2.29,2.3,2.31,2.31,0,0,1-2.35-2.3V192.58a2.24,2.24,0,0,1,2.46-2.47h12.54c6.84,0,11.71,4.37,11.71,11.26,0,6.39-4.15,10-8.91,10.75l8.57,12A2.31,2.31,0,0,1,665.17,225.56Zm-22.18-17h9.8c4.43,0,7.45-3,7.45-7.17s-3-7.11-7.45-7.11H643Z"/><path class="cls-1" d="M683.26,225.39V194.26h-10a2.08,2.08,0,0,1,0-4.15h24.64a2.08,2.08,0,0,1,0,4.15h-10v31.13a2.3,2.3,0,0,1-2.29,2.3A2.35,2.35,0,0,1,683.26,225.39Z"/><path class="cls-1" d="M708.12,192.19a2.33,2.33,0,0,1,4.65,0v20.66c0,6.83,3.7,11.15,10.58,11.15s10.59-4.32,10.59-11.15V192.19a2.33,2.33,0,0,1,4.65,0v20.72c0,9.29-5.1,15.23-15.24,15.23s-15.23-6-15.23-15.18Z"/><path class="cls-1" d="M779,225.28a2.38,2.38,0,0,1-4.59.9l-2.69-7H752.47l-2.68,7a2.26,2.26,0,0,1-2.19,1.51,2.38,2.38,0,0,1-2.41-2.35,3.35,3.35,0,0,1,.23-1l12.88-31.92a4.1,4.1,0,0,1,3.81-2.58,4,4,0,0,1,3.75,2.58l12.93,31.92A4.65,4.65,0,0,1,779,225.28ZM770.11,215l-8-20.78-8,20.78Z"/><path class="cls-1" d="M787.08,225V192.19a2.33,2.33,0,0,1,4.65,0v31.13h15.51a2.08,2.08,0,1,1,0,4.15H789.55A2.25,2.25,0,0,1,787.08,225Z"/></svg>