<svg id="Layer_1" data-name="Layer 1" xmlns="http://www.w3.org/2000/svg" viewBox="0 0 591.83 139.43"><defs><style>.cls-1{fill:#c42026;}.cls-2{fill:#da4726;}.cls-3{fill:#4f3a2b;}.cls-4{isolation:isolate;}</style></defs><title>vis2020_logo_virtual</title><path class="cls-1" d="M160,98.9,134.3,39.5a3.29,3.29,0,0,1-.4-1.7,3.85,3.85,0,0,1,3.8-3.7,4.17,4.17,0,0,1,3.9,2.9l23.1,55.3,23.2-55.5c.7-1.3,2-2.7,3.7-2.7a3.65,3.65,0,0,1,3.4,5.1L169.2,98.9c-.9,1.9-2.2,3.1-4.4,3.1h-.4A4.53,4.53,0,0,1,160,98.9Z" transform="translate(-8.38 -7.36)"/><path class="cls-1" d="M208.5,37.9a3.75,3.75,0,1,1,7.5,0V98a3.75,3.75,0,1,1-7.5,0Z" transform="translate(-8.38 -7.36)"/><path class="cls-1" d="M231.5,93.3a3.3,3.3,0,0,1-1.4-2.9,3.61,3.61,0,0,1,3.6-3.7,3.24,3.24,0,0,1,2.3.9c6.3,5.3,12.6,7.9,21.1,7.9,9,0,14.9-4.8,14.9-11.4v-.2c0-6.2-3.3-9.7-17.3-12.7-15.3-3.3-22.4-8.3-22.4-19.3v-.2c0-10.5,9.2-18.2,21.9-18.2,8.8,0,15.2,2.2,21.3,6.6a3.75,3.75,0,0,1,1.6,3,3.59,3.59,0,0,1-3.6,3.6,3.41,3.41,0,0,1-2.2-.7A28,28,0,0,0,254,40.2c-8.7,0-14.2,4.8-14.2,10.8v.2c0,6.3,3.4,9.8,18.1,13,14.9,3.2,21.7,8.7,21.7,18.9v.2c0,11.4-9.5,18.9-22.8,18.9A38.88,38.88,0,0,1,231.5,93.3Z" transform="translate(-8.38 -7.36)"/><path class="cls-2" d="M46.8,45.8a8.91,8.91,0,1,1,0-12.6A8.87,8.87,0,0,1,46.8,45.8Z" transform="translate(-8.38 -7.36)"/><path class="cls-2" d="M84.7,83.6a8.91,8.91,0,1,1,0,12.6A8.87,8.87,0,0,1,84.7,83.6Z" transform="translate(-8.38 -7.36)"/><path class="cls-2" d="M84.7,33.1a8.91,8.91,0,1,1,0,12.6A8.87,8.87,0,0,1,84.7,33.1Z" transform="translate(-8.38 -7.36)"/><path class="cls-2" d="M34.2,83.6a8.91,8.91,0,1,1,0,12.6A8.87,8.87,0,0,1,34.2,83.6Z" transform="translate(-8.38 -7.36)"/><path class="cls-2" d="M78.3,72.8h-.6a6,6,0,0,1-4.6-2l-.5-.5a8.92,8.92,0,0,0,0-11.5l.6-.6c.7-.7,2.7-2.2,4.6-1.9h.7A4.5,4.5,0,1,0,74,51.8v.5h0a6,6,0,0,1-1.9,4.6l-.5.5a8.92,8.92,0,0,0-11.5.1,2.76,2.76,0,0,1-.6-.6c-.7-.7-2.2-2.7-1.9-4.6v-.7a4.45,4.45,0,1,0-4.4,4.5h.5A6,6,0,0,1,58.3,58l.6.6a9,9,0,0,0,0,11.4l-.6.6c-.7.7-2.7,2.2-4.6,1.9H53A4.48,4.48,0,0,0,48.5,77,4.4,4.4,0,0,0,53,81.4,4.46,4.46,0,0,0,57.5,77v-.5h0a6,6,0,0,1,1.9-4.6l.6-.6a8.92,8.92,0,0,0,11.5,0,4,4,0,0,0,.5.7c.7.7,2.2,2.7,1.9,4.6v.7a4.4,4.4,0,0,0,4.5,4.4,4.46,4.46,0,0,0,4.5-4.4A4.63,4.63,0,0,0,78.3,72.8Z" transform="translate(-8.38 -7.36)"/><path class="cls-2" d="M120.4,58.4a8.87,8.87,0,0,0-12.6,0,8.68,8.68,0,0,0-2,3.1c-1.1,2-3.9,2.2-4.9,2.2h-.1A6.62,6.62,0,0,0,98.9,60a6.72,6.72,0,1,0,0,9.5,6.58,6.58,0,0,0,1.9-3.8h.2c1,0,3.8.2,4.7,2.1a7.45,7.45,0,0,0,2.1,3.2,8.87,8.87,0,0,0,12.6,0A9.06,9.06,0,0,0,120.4,58.4ZM59.5,10a8.87,8.87,0,0,0,0,12.6,10.4,10.4,0,0,0,3.2,2.1c1.9,1.1,2.1,3.8,2.1,4.8v.2a6,6,0,0,0-3.7,1.9,6.72,6.72,0,1,0,9.5,0,7,7,0,0,0-3.7-1.9v-.3c0-1.1.3-4.1,2.4-4.9a2.19,2.19,0,0,0,.5-.3,9.12,9.12,0,0,0,2.3-1.7,8.87,8.87,0,0,0,0-12.6A9,9,0,0,0,59.5,10Zm9.3,94.7c-1.9-1.1-2.1-3.8-2.1-4.8v-.2a6,6,0,0,0,3.7-1.9,6.72,6.72,0,1,0-9.5,0,7,7,0,0,0,3.7,1.9v.3c0,1.1-.3,4.1-2.4,4.9a2.19,2.19,0,0,0-.5.3,9.12,9.12,0,0,0-2.3,1.7,8.91,8.91,0,1,0,12.6,0A6.87,6.87,0,0,0,68.8,104.7ZM32.5,59.9a6.58,6.58,0,0,0-1.9,3.8h-.2c-1,0-3.8-.2-4.7-2.1a7.45,7.45,0,0,0-2.1-3.2,8.91,8.91,0,1,0,0,12.6,8.68,8.68,0,0,0,2-3.1c1-2,3.9-2.2,4.9-2.2h.1a6.62,6.62,0,0,0,1.9,3.7,6.72,6.72,0,1,0,0-9.5Z" transform="translate(-8.38 -7.36)"/><path class="cls-3" d="M299.1,94.1l21-20c9.5-9.1,12.8-14.2,12.8-20.9,0-7.8-5.7-12.7-12.4-12.7-6.5,0-10.9,3.4-15.3,9.7a2.86,2.86,0,0,1-2.5,1.3,3.27,3.27,0,0,1-3.2-3.4,3.77,3.77,0,0,1,.7-2.1c5.1-7.7,10.7-12.2,20.8-12.2,11.1,0,19,8,19,18.8v.2c0,9.7-4.7,15.7-15.5,25.8L308.1,94.4h29.8a3.27,3.27,0,0,1,3.2,3.4,3.33,3.33,0,0,1-3.2,3.4h-37a3.36,3.36,0,0,1-3.5-3.5A4.77,4.77,0,0,1,299.1,94.1Z" transform="translate(-8.38 -7.36)"/><path class="cls-3" d="M351.6,68v-.2c0-18.6,10.3-34.4,26.1-34.4S403.5,49,403.5,67.6v.2c0,18.6-10.2,34.4-26,34.4S351.6,86.6,351.6,68Zm44.7,0v-.2c0-14.5-7.4-27.5-18.8-27.5S358.8,53,358.8,67.7v.2c0,14.5,7.4,27.5,18.9,27.5S396.3,82.6,396.3,68Z" transform="translate(-8.38 -7.36)"/><path class="cls-3" d="M413.6,94.1l21-20c9.5-9.1,12.8-14.2,12.8-20.9,0-7.8-5.7-12.7-12.4-12.7-6.5,0-10.9,3.4-15.3,9.7a2.86,2.86,0,0,1-2.5,1.3,3.27,3.27,0,0,1-3.2-3.4,3.77,3.77,0,0,1,.7-2.1c5.1-7.7,10.7-12.2,20.8-12.2,11.1,0,19,8,19,18.8v.2c0,9.7-4.7,15.7-15.5,25.8L422.6,94.4h29.8a3.27,3.27,0,0,1,3.2,3.4,3.33,3.33,0,0,1-3.2,3.4h-37a3.36,3.36,0,0,1-3.5-3.5A4.19,4.19,0,0,1,413.6,94.1Z" transform="translate(-8.38 -7.36)"/><path class="cls-3" d="M466.1,68v-.2c0-18.6,10.3-34.4,26.1-34.4S518,49,518,67.7v.2c0,18.6-10.2,34.4-26,34.4S466.1,86.6,466.1,68Zm44.7,0v-.2c0-14.5-7.4-27.5-18.8-27.5S473.3,53,473.3,67.7v.2c0,14.5,7.4,27.5,18.9,27.5S510.8,82.6,510.8,68Z" transform="translate(-8.38 -7.36)"/><g class="cls-4"><path class="cls-1" d="M424.59,144.16,413.46,116.5a1.38,1.38,0,0,1-.2-.78,2.12,2.12,0,0,1,2.14-2.13,2.09,2.09,0,0,1,2,1.36l10.5,26.83L438.39,115a2.07,2.07,0,0,1,2-1.36,2.16,2.16,0,0,1,2.14,2.13,2,2,0,0,1-.2.78L431.2,144.16a3.55,3.55,0,0,1-3.31,2.24A3.5,3.5,0,0,1,424.59,144.16Z" transform="translate(-8.38 -7.36)"/><path class="cls-1" d="M447.68,144.41V115.58a2,2,0,0,1,4,0v28.83a2,2,0,0,1-4,0Z" transform="translate(-8.38 -7.36)"/><path class="cls-1" d="M482.59,144.55a2,2,0,0,1-1.94,1.85,2.08,2.08,0,0,1-1.71-.83l-8.45-12.25h-7.15v11.09a2,2,0,0,1-4,0V115.92a2,2,0,0,1,2.14-2.14h10.89c5.93,0,10.16,3.79,10.16,9.77,0,5.54-3.59,8.7-7.73,9.34l7.44,10.4A2,2,0,0,1,482.59,144.55Zm-19.25-14.78h8.51c3.84,0,6.46-2.57,6.46-6.22s-2.62-6.17-6.46-6.17h-8.51Z" transform="translate(-8.38 -7.36)"/><path class="cls-1" d="M496.4,144.41v-27h-8.65a1.8,1.8,0,0,1,0-3.6h21.39a1.8,1.8,0,1,1,0,3.6h-8.7v27a2,2,0,0,1-2,2A2,2,0,0,1,496.4,144.41Z" transform="translate(-8.38 -7.36)"/><path class="cls-1" d="M516.09,115.58a2,2,0,0,1,4,0v17.94c0,5.93,3.21,9.67,9.19,9.67s9.18-3.74,9.18-9.67V115.58a2,2,0,0,1,2-2,2,2,0,0,1,2,2v18c0,8.07-4.42,13.22-13.22,13.22s-13.23-5.2-13.23-13.17Z" transform="translate(-8.38 -7.36)"/><path class="cls-1" d="M575.7,144.31a2.07,2.07,0,0,1-4,.78L569.38,139H552.71l-2.34,6.08a2,2,0,0,1-1.89,1.31,2.06,2.06,0,0,1-2.09-2,2.8,2.8,0,0,1,.19-.83l11.18-27.71a3.57,3.57,0,0,1,3.31-2.23,3.43,3.43,0,0,1,3.25,2.23l11.23,27.71A4.46,4.46,0,0,1,575.7,144.31Zm-7.68-8.9-6.95-18-7,18Z" transform="translate(-8.38 -7.36)"/><path class="cls-1" d="M580.86,144.07V115.58a2,2,0,0,1,2-2,2,2,0,0,1,2,2v27h13.47a1.8,1.8,0,1,1,0,3.6H583A1.94,1.94,0,0,1,580.86,144.07Z" transform="translate(-8.38 -7.36)"/></g></svg>